<?xml version="1.0" encoding="UTF-8"?>
<svg width="290px" height="210px" viewBox="0 0 290 210" version="1.1" xmlns="http://www.w3.org/2000/svg" xmlns:xlink="http://www.w3.org/1999/xlink">
    <!-- Generator: Sketch 61 (89581) - https://sketch.com -->
    <title>Slice</title>
    <desc>Created with Sketch.</desc>
    <g id="Page-1" stroke="none" stroke-width="1" fill="none" fill-rule="evenodd">
        <rect id="Rectangle" fill="#D8D8D8" x="0" y="0" width="80" height="30"></rect>
        <rect id="Rectangle" fill="#D8D8D8" x="0" y="0" width="30" height="80"></rect>
        <rect id="Rectangle" fill="#D8D8D8" transform="translate(275.000000, 40.000000) rotate(90.000000) translate(-275.000000, -40.000000) " x="235" y="25" width="80" height="30"></rect>
        <rect id="Rectangle" fill="#D8D8D8" transform="translate(250.000000, 15.000000) rotate(90.000000) translate(-250.000000, -15.000000) " x="235" y="-25" width="30" height="80"></rect>
        <rect id="Rectangle" fill="#D8D8D8" transform="translate(250.000000, 195.000000) rotate(-180.000000) translate(-250.000000, -195.000000) " x="210" y="180" width="80" height="30"></rect>
        <rect id="Rectangle" fill="#D8D8D8" transform="translate(275.000000, 170.000000) rotate(-180.000000) translate(-275.000000, -170.000000) " x="260" y="130" width="30" height="80"></rect>
        <rect id="Rectangle" fill="#D8D8D8" transform="translate(15.000000, 170.000000) rotate(-90.000000) translate(-15.000000, -170.000000) " x="-25" y="155" width="80" height="30"></rect>
        <rect id="Rectangle" fill="#D8D8D8" transform="translate(40.000000, 195.000000) rotate(-90.000000) translate(-40.000000, -195.000000) " x="25" y="155" width="30" height="80"></rect>
    </g>
</svg>