<svg width="100%" height="100%" viewBox="0 0 1884 1543" version="1.1" xmlns="http://www.w3.org/2000/svg" xmlns:xlink="http://www.w3.org/1999/xlink" xmlns:sketch="http://www.bohemiancoding.com/sketch/ns">
	<!-- Generator: Sketch 3.4 (15575) - http://www.bohemiancoding.com/sketch -->
	<title>left + right + bottom</title>
	<desc>Created with Sketch.</desc>
	<defs></defs>
	<g id="Page-1" stroke="none" stroke-width="1" fill="white" fill-rule="evenodd" sketch:type="MSPage">
		<g class="d" id="left-+-right-+-bottom" sketch:type="MSLayerGroup">
			<path d="M425,16.6 C392.8,29.3 383.3,33.3 363.5,43 C324.7,62.1 296.2,84.1 276.9,110 C267.7,122.2 255,142.7 250.5,152.4 C244.4,165.6 241.9,173 232.5,206 C224.8,233.2 222,241.8 217.5,252.4 L215.8,256.4 L220.7,252.2 C223.3,249.8 238.6,237 254.5,223.6 C308.5,178.3 314.8,171.7 346.9,126.2 C385.5,71.6 405.4,46.7 430.2,22.2 C437.1,15.5 442.4,10 442.1,10.1 C441.8,10.1 434.1,13 425,16.6 Z M255,102.6 C225,112.7 199.3,131.7 172.3,164 C151,189.6 139.5,217.6 133.3,259.5 C130.7,277.1 130.8,330.8 133.5,358.5 C135.7,380.5 135.9,396.8 134.6,428.5 L133.8,449.5 L140.1,439 C158.2,409.1 187.8,377.9 223.5,351.2 C278.6,310 314.2,271 334.5,229.5 C345,208.1 351.3,186.4 352.5,167.5 L353.1,158.5 L348.8,167 C337.6,189.1 321.2,207.7 294.9,228.2 C289.3,232.6 274.6,243.4 262.2,252.2 C233.4,272.8 221.7,282.2 210.4,293.5 C190.1,313.9 171.7,341.1 161.6,365.4 C160.4,368.2 159.6,369 158.9,368.3 C157.4,366.8 160.3,356.9 170.1,329.1 C183.5,291.3 186,282.3 195.6,235.8 C198.6,220.9 202.5,203.5 204.1,197.1 C215.9,151.4 233,122.9 261.5,101.6 C264.1,99.6 263.9,99.7 255,102.6 Z M121.4,221.8 C118,224 97.2,253.7 86.4,271.5 C63.8,309.1 50.7,345.7 45.4,386 C42.9,405.1 42.9,453.6 45.4,469.5 C49.6,496.6 56.5,519.4 75.1,567.8 C94.3,617.5 101.1,640.1 104.8,665.6 L106.5,677.8 L108.3,668.6 C110.7,656.3 118.6,633.1 125.3,618.5 C136.8,593.5 150.7,570.8 179.4,530.2 C213.5,482 223.1,467.7 234.5,447.7 C249.3,421.7 263.8,380.3 270,345.8 C271.1,339.7 272,334.2 272,333.6 C272,333 270.1,335.9 267.7,340 C258,357.1 250.2,365.8 219.5,393.7 C176,433.2 152.4,459.9 136.5,487.5 C124,509.3 118.3,525.9 114,553.5 C112.8,561.2 111.4,569.2 110.9,571.2 C109.9,575.2 107.5,576.3 106.6,573.2 C106.2,572.2 107.6,550 109.6,523.9 C113,479.1 113.1,475.5 112.1,458.4 C110.9,439.8 109,421.3 104.5,387 C96.9,329.1 96.9,293.6 104.5,264.7 C108.3,250 115.5,232.8 121.2,224.7 C123.2,221.8 123.3,220.5 121.4,221.8 Z M20.7,476.2 C14,495.3 4.9,533.9 2.6,554 C-2.7,598.9 1.4,645 15.6,701.2 C29.4,755.5 40.3,774.9 93.4,838.9 C124.9,876.9 135.6,891 146.5,909.2 C149.6,914.3 153,919.4 154,920.5 C156,922.4 156,922.4 156,920.5 C156,919.4 155.3,913.1 154.5,906.5 C152.3,888.5 151.5,859.6 152.9,845.5 C154.5,829.1 156.4,821.2 168.1,781.2 C196.8,683 202.1,661.9 208.9,617.2 C211.7,599.2 214.7,578.6 215.5,571.5 C217.4,556.3 218.6,521.6 217.5,514.4 L216.8,509.5 L213.5,521 C205.7,547.9 198.9,563.1 185.7,583.5 C167.8,611.2 153.6,636.3 143.6,657.8 C115.3,718.9 109.1,773 124.5,823.6 C127.4,833.2 127.5,834.6 125.5,835.4 C123.8,836 123.5,835.4 118.9,822 C114.8,810.3 112.9,802.4 107,773.5 C96.4,721.6 90.3,703.5 63.7,645 C38.2,588.9 30,566.2 24.5,535.5 C22.3,523.5 21.4,490.3 22.9,478.6 C23.6,473.7 23.9,469.6 23.7,469.4 C23.5,469.1 22.1,472.2 20.7,476.2 Z M207.5,750.3 C207.4,778.6 207.6,777.4 192.5,851 C186.5,880.4 185.6,888.9 185.5,917.5 C185.5,944.9 186.2,952.5 190.7,972.8 C195.2,993.8 206.2,1021.8 215.5,1036.1 C220.6,1044 225,1052.3 225,1054.2 C225,1055.8 216.1,1047.1 210,1039.5 C207.4,1036.2 197,1021.1 186.9,1006 C159.8,965.4 153.1,957.5 101.3,904.7 C59.5,862.2 47.1,847.8 31,823.5 C17.1,802.4 6.9,777.4 3.1,755.1 L1.3,744.5 L0.5,763.5 C-0.4,784.2 0.9,812 3.5,830 C10.1,874.9 32.1,924.1 63,963 C72.8,975.4 104.4,1007.2 118.5,1018.9 C146,1041.8 179.5,1065.1 239,1103 C257.4,1114.7 277.8,1127.8 284.3,1132.2 C290.7,1136.5 296,1139.9 296,1139.6 C296,1138.6 292,1129.9 282.5,1110 C270.6,1085.2 267.2,1076.1 263.6,1059.5 C257.3,1030.4 253.1,998.2 247.5,936 C240,852 236.1,823.5 227,786.5 C223.1,770.6 214.3,743.2 209.8,733.3 L207.5,728.1 L207.5,750.3 Z M269.5,917.8 C272.4,923.7 277.7,938.1 281.4,950.3 C286.1,965.8 290.9,989.6 296,1022 C306.5,1090.2 312.5,1115.7 324,1142 C330.9,1157.8 347.1,1183.5 359,1197.5 C365.7,1205.3 385.4,1225 397.7,1236.2 C401.2,1239.3 403.5,1242.2 403,1242.5 C400.6,1244 374.1,1227.5 359.5,1215.6 C324.8,1187 307.4,1176.1 258,1151.8 C241.2,1143.6 217.6,1131.9 205.5,1126 C162.1,1104.6 133.3,1085.8 110.6,1064 C92.2,1046.4 78.7,1028.8 67.6,1007.9 C64.5,1002.2 62,998 62,998.5 C62,999.1 63.5,1005.6 65.4,1013 C81.7,1077.6 125.2,1140.2 189.3,1191.4 C202,1201.5 236.3,1224.4 249,1231.3 C260.8,1237.7 282.7,1246.3 298.9,1251 C318.8,1256.8 340,1261.1 381,1268 C431.3,1276.4 455.5,1281.3 475,1287.3 C479.5,1288.7 479.5,1288.6 465.5,1274.6 C429.9,1239 412.1,1205.7 383.5,1121 C377,1102 368.9,1078.6 365.3,1069 C349.6,1026.8 322.3,981.9 280.6,930 C267.7,914 267.3,913.5 269.5,917.8 Z M408.4,1123.2 C418,1137.9 422.4,1145.9 442.3,1185.5 C460.4,1221.4 470.6,1239.2 481.9,1254.4 C499.7,1278.5 521.6,1296.4 545.5,1306.7 C549.9,1308.6 556,1311.2 559.1,1312.5 C562.2,1313.9 571.4,1316.6 579.6,1318.5 C587.8,1320.5 597,1323.3 600,1324.7 L605.5,1327.3 L602,1328.1 C597,1329.3 590.7,1328.5 562.2,1322.9 C521.4,1314.9 503.4,1312.8 438.5,1308.5 C359.1,1303.2 330.6,1299 294.8,1287 C263,1276.4 238.1,1261.7 214.6,1239.8 L205.6,1231.5 L208.5,1236.5 C220.1,1256.6 233.8,1274.1 253.4,1293.5 C288.4,1328.3 327.5,1352.3 373.6,1367.3 C402.2,1376.7 421.7,1379.9 454.2,1380.7 C488.3,1381.5 513.1,1379 555.7,1370.5 C576.2,1366.3 592.1,1362.5 661.5,1344.6 C675.8,1340.9 690.8,1337.7 696.5,1337.1 C711.8,1335.4 722,1333.8 722.5,1333 C722.7,1332.6 718.1,1331.3 712.2,1330 C662.3,1319.4 617.1,1299.3 584.8,1273.4 C580,1269.5 560.9,1251.8 542.3,1233.9 C469.9,1164.3 447,1144.4 407.7,1116.6 L401,1111.9 L408.4,1123.2 Z"
			id="left" sketch:type="MSShapeGroup"></path>
			<path d="M1451.7,27.2 C1477,52.6 1479.5,55.5 1488.1,68.5 C1524.4,123.7 1574.9,179.3 1627.8,222.3 C1639.5,231.8 1654.9,243.7 1657.7,245.3 C1658.3,245.7 1657.1,241.8 1655,236.8 C1652.8,231.7 1649,219.8 1646.5,210.5 C1630.4,151.7 1607.4,109.9 1572.6,76.3 C1545.7,50.2 1523.4,37.7 1462.3,14.6 C1448.7,9.5 1434.6,4.1 1431,2.6 L1424.5,-2.27373675e-13 L1451.7,27.2 Z M1611,90.8 C1618.8,96.7 1635.4,113.9 1641.5,122.4 C1645.1,127.4 1651,137.3 1654.5,144.5 C1662,159.7 1665.1,169.8 1680,229.2 C1696,292.6 1702.8,315.3 1714.1,341.8 C1716.8,348.3 1719,354.1 1719,354.8 C1719,358.5 1715.7,353.9 1708.5,339.9 C1697.7,319.1 1696,316.3 1689.3,308.8 C1686.1,305.3 1680.2,298.4 1676.1,293.7 C1662.3,277.7 1645.6,264.2 1605.5,236.6 C1575.4,215.9 1563.9,206.9 1550.5,193.5 C1539,182 1529.3,169.2 1522.8,156.9 C1518.3,148.4 1518.2,149.4 1521.5,164.3 C1527.2,189.6 1535,211.6 1544.6,229.9 C1562.2,263.2 1581,282.6 1643.5,331.5 C1685.8,364.7 1704.8,381.9 1721.5,402 C1729.8,412 1739.6,426.3 1743.6,434.2 C1744.9,436.9 1746.2,439 1746.3,439 C1746.5,439 1746.1,435.7 1745.4,431.7 C1741.7,410.1 1741.1,381.2 1743.5,338.5 C1747.8,260.7 1743.4,226.8 1724,188 C1700.3,140.7 1656.9,101.8 1615,90.2 L1607.5,88.1 L1611,90.8 Z M1754.6,214.6 C1773.3,243.8 1781.6,296.8 1775.3,345.5 C1766.7,411.5 1766,488.4 1773.5,548.9 C1775,560.8 1774.7,564.2 1772.2,562.6 C1770.9,561.8 1769.6,556.3 1766.1,536.3 C1758,490.7 1739.4,457.8 1702.2,423.4 C1696.3,417.9 1683.6,406.5 1674,398 C1633.2,362.1 1616.2,343.9 1604.9,324.5 C1602.1,319.6 1602,319.6 1602.6,323 C1604.6,334.1 1612,360.6 1617.5,377 C1633.4,423.5 1644.9,443.3 1694,509 C1730.2,557.5 1742,575.2 1753.7,598.3 C1763.5,618 1769.5,635.2 1774.6,658.5 C1776.7,667.9 1776.4,668.6 1781,644 C1786.9,613 1796.5,579.9 1807.6,552.4 C1821.9,517 1825.1,507.2 1829.5,485.4 C1837.4,446.4 1837.4,400.9 1829.4,359.6 C1821.5,319 1805.8,280.9 1784.3,250.2 C1780.1,244.3 1774,235.4 1770.7,230.5 C1761.2,216.4 1746.4,201.7 1754.6,214.6 Z M1856.6,459 C1859.2,476.3 1858.4,507.6 1855,526.5 C1849,560.3 1839.9,586.4 1812.5,648 C1793.6,690.6 1787.5,709.9 1775,766.5 C1765.2,810.5 1763.1,818.6 1760.5,821 C1756.4,824.8 1756.5,821.6 1760.9,802.8 C1766.8,777.2 1767.3,772.1 1766.7,745.6 C1766.2,726.1 1765.8,720.6 1763.6,710.5 C1758,683.9 1745.6,655.8 1723.5,619.5 C1694.6,572.1 1688.7,562.1 1683,551 C1675.8,536.7 1668.9,520 1665.6,508.9 L1663.2,500.5 L1662.5,506.4 C1661.3,516 1662.7,543.1 1665.4,563.5 C1674.1,628 1688.9,688.4 1717.5,776 C1722.1,790 1726.5,805.1 1727.4,809.5 C1731.9,831.9 1732.1,857.2 1728.4,902.5 L1727.8,910.5 L1734.3,900.9 C1748,880.6 1757.4,868 1788.9,828 C1815.6,794 1834.5,768.7 1838.5,761.5 C1843.7,752.2 1852.4,732.5 1857.6,718.1 C1883.4,647 1888.6,568.9 1871.9,501 C1868.1,485.4 1860.5,462.5 1857.4,457 C1856,454.6 1856,454.7 1856.6,459 Z M1668.7,735.1 C1651.4,781.9 1645,816.4 1639,895.5 C1633.6,967.6 1631.8,986 1627.5,1013.2 C1621.3,1053.4 1612.6,1081.8 1597.3,1112.8 C1592.6,1122.3 1589,1130.3 1589.3,1130.6 C1589.6,1130.9 1594.9,1127.3 1601.2,1122.7 C1620.5,1108.3 1640,1095.2 1682,1068 C1736.7,1032.7 1750.9,1022.2 1774.1,1000.3 C1828.5,948.8 1861.4,895.3 1876.4,834 C1882.3,810 1883.5,799.6 1883.5,770 C1883.5,755.4 1883.1,740.3 1882.6,736.5 L1881.7,729.5 L1879.9,740.4 C1876.2,761.9 1865.6,788.3 1851.5,810.9 C1836.2,835.6 1818.2,856.8 1778.3,897 C1738.9,936.8 1734.5,942.2 1697.5,995.5 C1666.4,1040.3 1662.9,1045 1660.1,1045 C1657.9,1045 1657.9,1044.9 1659.2,1042.7 C1683.2,1005.6 1696.9,963.7 1698.6,922.1 C1699.6,897.5 1696.8,874.2 1686,818.7 C1677.8,776 1676.6,766.1 1676.5,738.3 L1676.5,714 C1676.5,714 1673,723.5 1668.7,735.1 Z M1609.1,911 C1600.7,921 1593,931.5 1575.5,956.5 C1553.2,988.3 1552,990.1 1544.4,1003.8 C1531.1,1028 1521.5,1052.2 1502.5,1109.5 C1484.3,1164.4 1478.6,1179 1464.9,1206.1 C1451.1,1233.4 1431.3,1260.5 1412.8,1277.4 L1405.5,1284 L1412.7,1281.6 C1430.1,1275.7 1456.8,1269.6 1508,1260 C1563,1249.7 1578.9,1245.7 1601,1236.8 C1663.3,1211.6 1724.7,1164.1 1766.8,1108.4 C1792,1075 1810.4,1036.8 1818.6,1001 C1822.1,985.4 1821.7,984.2 1816.4,994.5 C1799.6,1027.4 1770.1,1059.2 1734,1083.6 C1713.6,1097.4 1698.1,1106 1645,1133 C1618.3,1146.6 1589.8,1161.6 1581.5,1166.5 C1554.9,1182.1 1532.1,1198.7 1514.4,1215.3 C1502.1,1226.8 1485.8,1237.1 1483.5,1234.8 C1483.2,1234.6 1487.5,1230.3 1492.9,1225.2 C1516.7,1203.2 1540.2,1172.9 1554.4,1146 C1569.9,1116.6 1576.4,1091.3 1586.5,1021.7 C1595,963.7 1601,936.9 1610.9,914.1 C1613,909.1 1614.6,905 1614.4,905 C1614.2,905 1611.8,907.7 1609.1,911 Z M1470.9,1113.2 C1435.3,1139.5 1412.1,1160.4 1345.3,1226.2 C1322.6,1248.6 1300.6,1269.7 1296.3,1273.1 C1266.7,1296.6 1232.6,1312.1 1182,1324.9 L1162.9,1329.8 L1173.2,1331 C1188.8,1332.8 1224.3,1340.1 1263.9,1349.6 C1339.9,1367.8 1368.3,1372.9 1406.4,1375 C1459,1377.9 1506.1,1367.7 1553.5,1343.1 C1607.3,1315.2 1653.7,1271.9 1675.9,1228.9 L1680.3,1220.5 L1668.9,1231.5 C1645.3,1254.3 1620.8,1269 1588.5,1279.8 C1555.3,1290.9 1527,1295.5 1454.5,1301.5 C1388.6,1307 1365.7,1309.8 1333.7,1316.5 C1311.8,1321.1 1298.7,1323 1289.8,1323 C1282.9,1322.9 1282.6,1322.8 1285,1321.5 C1286.4,1320.7 1294.7,1317.7 1303.5,1315 C1329.3,1306.8 1333.9,1305 1345,1299.3 C1374.1,1284.1 1393.2,1267.1 1410.5,1241 C1420.4,1226.1 1428.5,1210.8 1441.5,1182.5 C1455.8,1151.5 1468.1,1127.7 1476.5,1115.1 C1480.5,1109 1483.7,1104 1483.6,1104 C1483.4,1104 1477.7,1108.1 1470.9,1113.2 Z"
			id="right" sketch:type="MSShapeGroup"></path>
			<path d="M832.5,1330.7 C775.7,1333.5 725.6,1348.5 624.8,1392.9 C586.4,1409.8 574.2,1414.3 555.7,1418.4 C531.7,1423.8 524.5,1424.5 493,1424.5 C467,1424.4 462,1424.2 450.6,1422.2 C418.9,1416.7 391.1,1406.9 368.7,1393.2 L361.9,1389 L364.8,1392.8 C369.8,1399 389,1417.2 398,1424.2 C435.5,1453.2 487.2,1475.2 532,1481.2 C545.7,1483 578.8,1482.7 594,1480.6 C636.8,1474.8 678.9,1459.2 715.5,1435.7 C742.6,1418.3 750.5,1413 771.8,1397.7 C807.9,1371.9 825.5,1362.3 847.8,1356.5 C857.7,1354 872,1352.9 882.2,1354 C891.7,1355 906,1357.9 906,1358.9 C906,1359.2 896.2,1364.4 884.4,1370.4 C830.9,1397.5 777.7,1433.9 732.5,1474.4 C715.5,1489.6 694.9,1509.3 695.2,1510.1 C695.4,1510.6 704.2,1518.1 714.9,1526.9 L734.2,1542.9 L741,1534.2 C771.3,1495.2 814.5,1454.2 861.5,1419.8 C895.9,1394.7 928.1,1375.9 942.1,1372.7 L948.5,1371.3 L956.1,1375.1 C1009.4,1401.6 1075,1454 1137.5,1519.9 C1148,1530.9 1156.8,1540 1157.1,1540 C1159.4,1540.1 1194,1508.6 1194,1506.4 C1194,1505 1170.9,1483.6 1153.9,1469.3 C1105.3,1428.4 1052.8,1393.7 1000.1,1367.8 C987.4,1361.6 984.1,1359.5 985.6,1359 C991.9,1356.7 1004.2,1355.6 1023.5,1355.6 C1043.5,1355.6 1044.9,1355.7 1053.3,1358.3 C1069.7,1363.4 1081.2,1370.1 1118,1396 C1146.3,1416 1159.5,1424.7 1172.1,1432 C1211,1454.3 1248.2,1467.8 1289.5,1474.7 C1304.9,1477.2 1349.9,1477.2 1364.5,1474.7 C1408.5,1467 1454.7,1446 1490.5,1417.3 C1500.5,1409.4 1523.2,1387.4 1525.1,1383.9 C1525.8,1382.6 1523.8,1383.4 1518.7,1386.5 C1462.1,1420.8 1382.4,1429.1 1313.6,1407.9 C1300.6,1403.9 1229.9,1375.4 1214.3,1368 C1176.2,1349.7 1138.6,1338.6 1094,1332.4 C1078.5,1330.3 1032.2,1329.4 1016.5,1330.9 C988.4,1333.6 965.6,1338.3 958.9,1342.7 C952,1347.3 944.4,1347.1 929,1342.2 C912.1,1336.7 889.7,1332.8 865,1331.1 C851.2,1330.1 846,1330 832.5,1330.7 L832.5,1330.7 L832.5,1330.7 Z"
			id="bottom" sketch:type="MSShapeGroup"></path>
		</g>
	</g>
</svg>